<svg width="402" height="131" viewBox="0 0 402 131" fill="none" xmlns="http://www.w3.org/2000/svg">
<line y1="106.5" x2="12" y2="106.5" stroke="#434BE7" stroke-width="7"/>
<line x1="3.5" y1="12" x2="3.5" y2="109.129" stroke="#434BE7" stroke-width="7"/>
<path d="M20 12L-1.13249e-06 12" stroke="#434BE7" stroke-width="7"/>
<line x1="87.5001" y1="12" x2="87.5" y2="21" stroke="#434BE7" stroke-width="7"/>
<path d="M69 12L89 12" stroke="#434BE7" stroke-width="7"/>
<line x1="12" y1="117.5" x2="32" y2="117.5" stroke="black" stroke-width="7"/>
<line x1="15.5" y1="23" x2="15.5" y2="120.129" stroke="black" stroke-width="7"/>
<path d="M32 23L12 23" stroke="black" stroke-width="7"/>
<line y1="-3.5" x2="20" y2="-3.5" transform="matrix(-1 0 0 1 97 121)" stroke="black" stroke-width="7"/>
<line y1="-3.5" x2="97.1288" y2="-3.5" transform="matrix(0 1 1 0 97 23)" stroke="black" stroke-width="7"/>
<path d="M77 23L97 23" stroke="black" stroke-width="7"/>
<line x1="26" y1="34.5" x2="83" y2="34.5" stroke="#434BE7" stroke-width="3"/>
<line x1="26" y1="43.5" x2="83" y2="43.5" stroke="#434BE7" stroke-width="3"/>
<line x1="26" y1="52.5" x2="83" y2="52.5" stroke="#434BE7" stroke-width="3"/>
<line x1="26" y1="61.5" x2="83" y2="61.5" stroke="#434BE7" stroke-width="3"/>
<line x1="26" y1="70.5" x2="83" y2="70.5" stroke="#434BE7" stroke-width="3"/>
<line x1="26" y1="79.5" x2="83" y2="79.5" stroke="#434BE7" stroke-width="3"/>
<line x1="26" y1="88.5" x2="83" y2="88.5" stroke="#434BE7" stroke-width="3"/>
<line x1="26" y1="97.5" x2="83" y2="97.5" stroke="#434BE7" stroke-width="3"/>
<line x1="26" y1="106.5" x2="62" y2="106.5" stroke="#434BE7" stroke-width="3"/>
<line x1="65" y1="106.5" x2="67" y2="106.5" stroke="#434BE7" stroke-width="3"/>
<line x1="69" y1="106.5" x2="71" y2="106.5" stroke="#434BE7" stroke-width="3"/>
<line x1="73" y1="106.5" x2="75" y2="106.5" stroke="#434BE7" stroke-width="3"/>
<line x1="113.5" x2="113.5" y2="131" stroke="#434BE7" stroke-width="5"/>
<path d="M129.785 71.36V24.06H141.39V28.35H135.835V67.07H141.39V71.36H129.785ZM149.736 71.36V67.07H155.346V28.35H149.736V24.06H161.341V71.36H149.736ZM180.632 72.845C178.322 69.0683 176.526 65.145 175.242 61.075C173.996 57.005 173.372 52.55 173.372 47.71C173.372 42.87 173.996 38.415 175.242 34.345C176.526 30.275 178.322 26.3517 180.632 22.575L185.692 24.665C183.676 28.2583 182.209 32.0167 181.292 35.94C180.376 39.8633 179.917 43.7867 179.917 47.71C179.917 51.6333 180.376 55.5567 181.292 59.48C182.209 63.4033 183.676 67.1617 185.692 70.755L180.632 72.845ZM210.814 63.66C208.54 63.66 206.395 63.275 204.379 62.505C202.362 61.6983 200.584 60.525 199.044 58.985C197.54 57.445 196.349 55.5383 195.469 53.265C194.589 50.955 194.149 48.2967 194.149 45.29C194.149 42.32 194.607 39.68 195.524 37.37C196.44 35.0233 197.669 33.0433 199.209 31.43C200.749 29.8167 202.545 28.5883 204.599 27.745C206.652 26.9017 208.815 26.48 211.089 26.48C213.399 26.48 215.47 26.9567 217.304 27.91C219.137 28.8267 220.659 29.9083 221.869 31.155L217.579 36.325C216.662 35.4817 215.69 34.8033 214.664 34.29C213.674 33.74 212.537 33.465 211.254 33.465C210.044 33.465 208.889 33.74 207.789 34.29C206.725 34.8033 205.79 35.555 204.984 36.545C204.214 37.535 203.59 38.745 203.114 40.175C202.674 41.605 202.454 43.2183 202.454 45.015C202.454 48.7183 203.242 51.5967 204.819 53.65C206.395 55.6667 208.504 56.675 211.144 56.675C212.61 56.675 213.912 56.3633 215.049 55.74C216.222 55.08 217.249 54.2733 218.129 53.32L222.419 58.38C219.412 61.9 215.544 63.66 210.814 63.66ZM238.48 57.83V47.71H228.8V41.99H238.48V31.87H244.42V41.99H254.1V47.71H244.42V57.83H238.48ZM270.838 57.83V47.71H261.158V41.99H270.838V31.87H276.778V41.99H286.458V47.71H276.778V57.83H270.838ZM299.346 72.845L294.286 70.755C296.339 67.1617 297.824 63.4033 298.741 59.48C299.657 55.5567 300.116 51.6333 300.116 47.71C300.116 43.7867 299.657 39.8633 298.741 35.94C297.824 32.0167 296.339 28.2583 294.286 24.665L299.346 22.575C301.656 26.3517 303.434 30.275 304.681 34.345C305.964 38.415 306.606 42.87 306.606 47.71C306.606 52.55 305.964 57.005 304.681 61.075C303.434 65.145 301.656 69.0683 299.346 72.845ZM326.777 71.36C324.357 71.36 322.579 70.7917 321.442 69.655C320.305 68.555 319.737 66.52 319.737 63.55C319.737 62.56 319.755 61.68 319.792 60.91C319.865 60.14 319.939 59.4067 320.012 58.71C320.085 57.9767 320.14 57.2617 320.177 56.565C320.25 55.8317 320.287 55.025 320.287 54.145C320.287 53.6683 320.195 53.1917 320.012 52.715C319.865 52.2383 319.609 51.8167 319.242 51.45C318.875 51.0467 318.38 50.735 317.757 50.515C317.17 50.2583 316.437 50.1117 315.557 50.075V45.345C316.437 45.3083 317.17 45.18 317.757 44.96C318.38 44.7033 318.875 44.3917 319.242 44.025C319.609 43.6217 319.865 43.1817 320.012 42.705C320.195 42.2283 320.287 41.7517 320.287 41.275C320.287 40.395 320.25 39.6067 320.177 38.91C320.14 38.1767 320.085 37.4617 320.012 36.765C319.939 36.0317 319.865 35.28 319.792 34.51C319.755 33.74 319.737 32.86 319.737 31.87C319.737 28.9 320.305 26.865 321.442 25.765C322.579 24.6283 324.357 24.06 326.777 24.06H330.242V28.35H329.197C328.06 28.35 327.29 28.625 326.887 29.175C326.484 29.6883 326.282 30.6967 326.282 32.2C326.282 33.7033 326.319 35.1517 326.392 36.545C326.465 37.9383 326.502 39.4783 326.502 41.165C326.502 43.255 326.172 44.7767 325.512 45.73C324.852 46.6467 323.825 47.27 322.432 47.6V47.82C323.825 48.15 324.852 48.7917 325.512 49.745C326.172 50.6617 326.502 52.165 326.502 54.255C326.502 55.9417 326.465 57.4817 326.392 58.875C326.319 60.2683 326.282 61.7167 326.282 63.22C326.282 64.7233 326.484 65.7317 326.887 66.245C327.29 66.795 328.06 67.07 329.197 67.07H330.242V71.36H326.777ZM345.518 63.605L336.773 63L348.488 35.61L348.323 34.84C347.993 33.4467 347.37 32.4017 346.453 31.705C345.573 30.9717 344.547 30.605 343.373 30.605C342.53 30.605 341.833 30.6783 341.283 30.825C340.733 30.9717 340.147 31.1917 339.523 31.485L337.763 24.94C338.643 24.5733 339.542 24.2983 340.458 24.115C341.412 23.895 342.695 23.785 344.308 23.785C347.462 23.785 349.992 24.7017 351.898 26.535C353.805 28.3683 355.345 31.2833 356.518 35.28L366.198 63H357.508L352.173 44.63H351.953L345.518 63.605ZM372.235 71.36V67.07H373.28C374.417 67.07 375.187 66.795 375.59 66.245C375.993 65.7317 376.195 64.7233 376.195 63.22C376.195 61.7167 376.158 60.2683 376.085 58.875C376.012 57.4817 375.975 55.9417 375.975 54.255C375.975 52.165 376.305 50.6617 376.965 49.745C377.625 48.7917 378.652 48.15 380.045 47.82V47.6C378.652 47.27 377.625 46.6467 376.965 45.73C376.305 44.7767 375.975 43.255 375.975 41.165C375.975 39.4783 376.012 37.9383 376.085 36.545C376.158 35.1517 376.195 33.7033 376.195 32.2C376.195 30.6967 375.993 29.6883 375.59 29.175C375.187 28.625 374.417 28.35 373.28 28.35H372.235V24.06H375.7C378.12 24.06 379.898 24.6283 381.035 25.765C382.172 26.865 382.74 28.9 382.74 31.87C382.74 32.86 382.703 33.74 382.63 34.51C382.593 35.28 382.538 36.0317 382.465 36.765C382.392 37.4617 382.318 38.1767 382.245 38.91C382.208 39.6067 382.19 40.395 382.19 41.275C382.19 41.7517 382.263 42.2283 382.41 42.705C382.593 43.1817 382.868 43.6217 383.235 44.025C383.602 44.3917 384.078 44.7033 384.665 44.96C385.288 45.18 386.04 45.3083 386.92 45.345V50.075C386.04 50.1117 385.288 50.2583 384.665 50.515C384.078 50.735 383.602 51.0467 383.235 51.45C382.868 51.8167 382.593 52.2383 382.41 52.715C382.263 53.1917 382.19 53.6683 382.19 54.145C382.19 55.025 382.208 55.8317 382.245 56.565C382.318 57.2617 382.392 57.9767 382.465 58.71C382.538 59.4067 382.593 60.14 382.63 60.91C382.703 61.68 382.74 62.56 382.74 63.55C382.74 66.52 382.172 68.555 381.035 69.655C379.898 70.7917 378.12 71.36 375.7 71.36H372.235Z" fill="#434BE7"/>
<path d="M126.925 99V82.7H132.8C133.667 82.7 134.475 82.7833 135.225 82.95C135.992 83.1167 136.658 83.4 137.225 83.8C137.792 84.1833 138.242 84.7 138.575 85.35C138.908 86 139.075 86.8083 139.075 87.775C139.075 88.975 138.808 89.9667 138.275 90.75C137.758 91.5167 137.058 92.0917 136.175 92.475L139.875 99H135.75L132.625 93.125H130.6V99H126.925ZM130.6 90.2H132.5C133.467 90.2 134.2 90 134.7 89.6C135.217 89.1833 135.475 88.575 135.475 87.775C135.475 86.975 135.217 86.4167 134.7 86.1C134.2 85.7833 133.467 85.625 132.5 85.625H130.6V90.2ZM146.387 99.3C145.82 99.3 145.303 99.2 144.837 99C144.387 98.8167 144.003 98.5583 143.687 98.225C143.37 97.875 143.12 97.475 142.937 97.025C142.77 96.575 142.687 96.0833 142.687 95.55C142.687 94.25 143.237 93.2333 144.337 92.5C145.437 91.7667 147.212 91.275 149.662 91.025C149.628 90.475 149.462 90.0417 149.162 89.725C148.878 89.3917 148.395 89.225 147.712 89.225C147.178 89.225 146.645 89.325 146.112 89.525C145.595 89.725 145.037 90 144.437 90.35L143.112 87.925C143.912 87.4417 144.745 87.05 145.612 86.75C146.495 86.45 147.428 86.3 148.412 86.3C150.012 86.3 151.228 86.7583 152.062 87.675C152.912 88.575 153.337 89.9833 153.337 91.9V99H150.337L150.087 97.725H149.987C149.453 98.1917 148.895 98.575 148.312 98.875C147.728 99.1583 147.087 99.3 146.387 99.3ZM147.637 96.45C148.053 96.45 148.412 96.3583 148.712 96.175C149.012 95.9917 149.328 95.7333 149.662 95.4V93.225C148.362 93.4083 147.462 93.675 146.962 94.025C146.462 94.375 146.212 94.7917 146.212 95.275C146.212 95.675 146.337 95.975 146.587 96.175C146.853 96.3583 147.203 96.45 147.637 96.45ZM166.47 99V89.475H162.245V99H158.57V89.475H156.92V86.75L158.57 86.625V86.05C158.57 85.4167 158.654 84.8167 158.82 84.25C159.004 83.6833 159.279 83.1917 159.645 82.775C160.029 82.3583 160.512 82.0333 161.095 81.8C161.695 81.55 162.42 81.425 163.27 81.425C163.804 81.425 164.295 81.475 164.745 81.575C165.195 81.6583 165.562 81.7583 165.845 81.875L165.17 84.6C164.97 84.5167 164.762 84.45 164.545 84.4C164.329 84.35 164.054 84.325 163.72 84.325C163.287 84.325 162.929 84.4667 162.645 84.75C162.379 85.0167 162.245 85.4417 162.245 86.025V86.6H166.47V85.95C166.47 85.3 166.545 84.6833 166.695 84.1C166.862 83.5167 167.129 83.0083 167.495 82.575C167.862 82.1417 168.337 81.8 168.92 81.55C169.504 81.3 170.212 81.175 171.045 81.175C171.562 81.175 172.029 81.225 172.445 81.325C172.879 81.425 173.237 81.525 173.52 81.625L172.845 84.325C172.379 84.1583 171.954 84.075 171.57 84.075C171.12 84.075 170.77 84.2167 170.52 84.5C170.27 84.7667 170.145 85.2167 170.145 85.85V86.6H172.37V89.475H170.145V99H166.47ZM178.513 99.3C177.946 99.3 177.429 99.2 176.963 99C176.513 98.8167 176.129 98.5583 175.813 98.225C175.496 97.875 175.246 97.475 175.063 97.025C174.896 96.575 174.813 96.0833 174.813 95.55C174.813 94.25 175.363 93.2333 176.463 92.5C177.563 91.7667 179.338 91.275 181.788 91.025C181.754 90.475 181.588 90.0417 181.288 89.725C181.004 89.3917 180.521 89.225 179.838 89.225C179.304 89.225 178.771 89.325 178.238 89.525C177.721 89.725 177.163 90 176.563 90.35L175.238 87.925C176.038 87.4417 176.871 87.05 177.738 86.75C178.621 86.45 179.554 86.3 180.538 86.3C182.138 86.3 183.354 86.7583 184.188 87.675C185.038 88.575 185.463 89.9833 185.463 91.9V99H182.463L182.213 97.725H182.113C181.579 98.1917 181.021 98.575 180.438 98.875C179.854 99.1583 179.213 99.3 178.513 99.3ZM179.763 96.45C180.179 96.45 180.538 96.3583 180.838 96.175C181.138 95.9917 181.454 95.7333 181.788 95.4V93.225C180.488 93.4083 179.588 93.675 179.088 94.025C178.588 94.375 178.338 94.7917 178.338 95.275C178.338 95.675 178.463 95.975 178.713 96.175C178.979 96.3583 179.329 96.45 179.763 96.45ZM195.621 99.3C194.738 99.3 193.913 99.1583 193.146 98.875C192.38 98.575 191.713 98.15 191.146 97.6C190.58 97.0333 190.138 96.35 189.821 95.55C189.505 94.75 189.346 93.8333 189.346 92.8C189.346 91.8 189.513 90.9 189.846 90.1C190.18 89.2833 190.613 88.6 191.146 88.05C191.696 87.4833 192.321 87.05 193.021 86.75C193.721 86.45 194.446 86.3 195.196 86.3C196.08 86.3 196.846 86.45 197.496 86.75C198.163 87.05 198.713 87.4667 199.146 88C199.596 88.5333 199.93 89.1667 200.146 89.9C200.363 90.6167 200.471 91.4 200.471 92.25C200.471 92.5833 200.455 92.9 200.421 93.2C200.388 93.5 200.355 93.725 200.321 93.875H192.896C193.063 94.775 193.43 95.4417 193.996 95.875C194.58 96.2917 195.288 96.5 196.121 96.5C197.005 96.5 197.896 96.225 198.796 95.675L200.021 97.9C199.388 98.3333 198.68 98.675 197.896 98.925C197.13 99.175 196.371 99.3 195.621 99.3ZM192.871 91.45H197.346C197.346 90.75 197.188 90.1833 196.871 89.75C196.555 89.3167 196.021 89.1 195.271 89.1C194.688 89.1 194.171 89.2917 193.721 89.675C193.288 90.0583 193.005 90.65 192.871 91.45ZM207.886 99.3C207.252 99.3 206.719 99.2 206.286 99C205.852 98.8 205.502 98.525 205.236 98.175C204.986 97.8083 204.802 97.375 204.686 96.875C204.569 96.3583 204.511 95.7833 204.511 95.15V81.475H208.186V95.3C208.186 95.6833 208.252 95.95 208.386 96.1C208.536 96.25 208.686 96.325 208.836 96.325C208.919 96.325 208.986 96.325 209.036 96.325C209.102 96.325 209.186 96.3083 209.286 96.275L209.736 99C209.536 99.0833 209.277 99.15 208.961 99.2C208.661 99.2667 208.302 99.3 207.886 99.3ZM216.539 99.3C215.906 99.3 215.372 99.2 214.939 99C214.506 98.8 214.156 98.525 213.889 98.175C213.639 97.8083 213.456 97.375 213.339 96.875C213.222 96.3583 213.164 95.7833 213.164 95.15V81.475H216.839V95.3C216.839 95.6833 216.906 95.95 217.039 96.1C217.189 96.25 217.339 96.325 217.489 96.325C217.572 96.325 217.639 96.325 217.689 96.325C217.756 96.325 217.839 96.3083 217.939 96.275L218.389 99C218.189 99.0833 217.931 99.15 217.614 99.2C217.314 99.2667 216.956 99.3 216.539 99.3ZM227.142 99.3C226.359 99.3 225.601 99.1583 224.867 98.875C224.134 98.575 223.484 98.15 222.917 97.6C222.367 97.05 221.926 96.375 221.592 95.575C221.259 94.7583 221.092 93.8333 221.092 92.8C221.092 91.7667 221.259 90.85 221.592 90.05C221.926 89.2333 222.367 88.55 222.917 88C223.484 87.45 224.134 87.0333 224.867 86.75C225.601 86.45 226.359 86.3 227.142 86.3C227.926 86.3 228.676 86.45 229.392 86.75C230.126 87.0333 230.767 87.45 231.317 88C231.884 88.55 232.334 89.2333 232.667 90.05C233.001 90.85 233.167 91.7667 233.167 92.8C233.167 93.8333 233.001 94.7583 232.667 95.575C232.334 96.375 231.884 97.05 231.317 97.6C230.767 98.15 230.126 98.575 229.392 98.875C228.676 99.1583 227.926 99.3 227.142 99.3ZM227.142 96.325C227.892 96.325 228.459 96.0083 228.842 95.375C229.226 94.7417 229.417 93.8833 229.417 92.8C229.417 91.7167 229.226 90.8583 228.842 90.225C228.459 89.5917 227.892 89.275 227.142 89.275C226.376 89.275 225.801 89.5917 225.417 90.225C225.051 90.8583 224.867 91.7167 224.867 92.8C224.867 93.8833 225.051 94.7417 225.417 95.375C225.801 96.0083 226.376 96.325 227.142 96.325ZM243.989 99V82.7H254.264V85.8H247.664V89.575H253.314V92.675H247.664V99H243.989ZM263.185 99.3C262.402 99.3 261.644 99.1583 260.91 98.875C260.177 98.575 259.527 98.15 258.96 97.6C258.41 97.05 257.969 96.375 257.635 95.575C257.302 94.7583 257.135 93.8333 257.135 92.8C257.135 91.7667 257.302 90.85 257.635 90.05C257.969 89.2333 258.41 88.55 258.96 88C259.527 87.45 260.177 87.0333 260.91 86.75C261.644 86.45 262.402 86.3 263.185 86.3C263.969 86.3 264.719 86.45 265.435 86.75C266.169 87.0333 266.81 87.45 267.36 88C267.927 88.55 268.377 89.2333 268.71 90.05C269.044 90.85 269.21 91.7667 269.21 92.8C269.21 93.8333 269.044 94.7583 268.71 95.575C268.377 96.375 267.927 97.05 267.36 97.6C266.81 98.15 266.169 98.575 265.435 98.875C264.719 99.1583 263.969 99.3 263.185 99.3ZM263.185 96.325C263.935 96.325 264.502 96.0083 264.885 95.375C265.269 94.7417 265.46 93.8833 265.46 92.8C265.46 91.7167 265.269 90.8583 264.885 90.225C264.502 89.5917 263.935 89.275 263.185 89.275C262.419 89.275 261.844 89.5917 261.46 90.225C261.094 90.8583 260.91 91.7167 260.91 92.8C260.91 93.8833 261.094 94.7417 261.46 95.375C261.844 96.0083 262.419 96.325 263.185 96.325ZM273.228 99V86.6H276.228L276.478 88.775H276.578C277.028 87.925 277.569 87.3 278.203 86.9C278.836 86.5 279.469 86.3 280.103 86.3C280.453 86.3 280.736 86.325 280.953 86.375C281.186 86.4083 281.394 86.4667 281.578 86.55L280.978 89.725C280.744 89.6583 280.528 89.6083 280.328 89.575C280.128 89.5417 279.894 89.525 279.628 89.525C279.161 89.525 278.669 89.6917 278.153 90.025C277.653 90.3583 277.236 90.95 276.903 91.8V99H273.228ZM284.688 99V86.6H287.688L287.938 88.175H288.038C288.572 87.675 289.155 87.2417 289.788 86.875C290.422 86.4917 291.163 86.3 292.013 86.3C293.363 86.3 294.338 86.7417 294.938 87.625C295.555 88.5083 295.863 89.7333 295.863 91.3V99H292.188V91.775C292.188 90.875 292.063 90.2583 291.813 89.925C291.58 89.5917 291.197 89.425 290.663 89.425C290.197 89.425 289.797 89.5333 289.463 89.75C289.13 89.95 288.763 90.2417 288.363 90.625V99H284.688ZM303.62 99.3C303.053 99.3 302.537 99.2 302.07 99C301.62 98.8167 301.237 98.5583 300.92 98.225C300.603 97.875 300.353 97.475 300.17 97.025C300.003 96.575 299.92 96.0833 299.92 95.55C299.92 94.25 300.47 93.2333 301.57 92.5C302.67 91.7667 304.445 91.275 306.895 91.025C306.862 90.475 306.695 90.0417 306.395 89.725C306.112 89.3917 305.628 89.225 304.945 89.225C304.412 89.225 303.878 89.325 303.345 89.525C302.828 89.725 302.27 90 301.67 90.35L300.345 87.925C301.145 87.4417 301.978 87.05 302.845 86.75C303.728 86.45 304.662 86.3 305.645 86.3C307.245 86.3 308.462 86.7583 309.295 87.675C310.145 88.575 310.57 89.9833 310.57 91.9V99H307.57L307.32 97.725H307.22C306.687 98.1917 306.128 98.575 305.545 98.875C304.962 99.1583 304.32 99.3 303.62 99.3ZM304.87 96.45C305.287 96.45 305.645 96.3583 305.945 96.175C306.245 95.9917 306.562 95.7333 306.895 95.4V93.225C305.595 93.4083 304.695 93.675 304.195 94.025C303.695 94.375 303.445 94.7917 303.445 95.275C303.445 95.675 303.57 95.975 303.82 96.175C304.087 96.3583 304.437 96.45 304.87 96.45ZM318.829 99.3C318.012 99.3 317.17 99.1417 316.304 98.825C315.454 98.5083 314.712 98.0917 314.079 97.575L315.729 95.275C316.295 95.7083 316.837 96.0333 317.354 96.25C317.87 96.4667 318.395 96.575 318.929 96.575C319.479 96.575 319.879 96.4833 320.129 96.3C320.379 96.1167 320.504 95.8583 320.504 95.525C320.504 95.325 320.429 95.15 320.279 95C320.145 94.8333 319.954 94.6833 319.704 94.55C319.47 94.4167 319.204 94.3 318.904 94.2C318.604 94.0833 318.295 93.9583 317.979 93.825C317.595 93.675 317.212 93.5 316.829 93.3C316.445 93.1 316.095 92.8583 315.779 92.575C315.462 92.275 315.204 91.9333 315.004 91.55C314.804 91.15 314.704 90.6917 314.704 90.175C314.704 89.6083 314.812 89.0833 315.029 88.6C315.262 88.1167 315.587 87.7083 316.004 87.375C316.42 87.0417 316.92 86.7833 317.504 86.6C318.087 86.4 318.737 86.3 319.454 86.3C320.404 86.3 321.237 86.4667 321.954 86.8C322.67 87.1167 323.295 87.475 323.829 87.875L322.179 90.075C321.729 89.7417 321.287 89.4833 320.854 89.3C320.42 89.1167 319.987 89.025 319.554 89.025C318.62 89.025 318.154 89.35 318.154 90C318.154 90.2 318.22 90.375 318.354 90.525C318.487 90.6583 318.662 90.7833 318.879 90.9C319.112 91.0167 319.37 91.1333 319.654 91.25C319.954 91.35 320.262 91.4583 320.579 91.575C320.979 91.725 321.37 91.9 321.754 92.1C322.154 92.2833 322.512 92.5167 322.829 92.8C323.162 93.0833 323.429 93.4333 323.629 93.85C323.829 94.25 323.929 94.7333 323.929 95.3C323.929 95.8667 323.82 96.3917 323.604 96.875C323.387 97.3583 323.062 97.7833 322.629 98.15C322.195 98.5 321.662 98.7833 321.029 99C320.395 99.2 319.662 99.3 318.829 99.3ZM327.763 99V86.6H331.438V99H327.763ZM329.588 84.775C328.971 84.775 328.463 84.6 328.063 84.25C327.663 83.8833 327.463 83.4167 327.463 82.85C327.463 82.2833 327.663 81.825 328.063 81.475C328.463 81.125 328.971 80.95 329.588 80.95C330.221 80.95 330.729 81.125 331.113 81.475C331.513 81.825 331.713 82.2833 331.713 82.85C331.713 83.4167 331.513 83.8833 331.113 84.25C330.729 84.6 330.221 84.775 329.588 84.775ZM341.722 99.3C340.839 99.3 340.014 99.1583 339.247 98.875C338.48 98.575 337.814 98.15 337.247 97.6C336.68 97.0333 336.239 96.35 335.922 95.55C335.605 94.75 335.447 93.8333 335.447 92.8C335.447 91.8 335.614 90.9 335.947 90.1C336.28 89.2833 336.714 88.6 337.247 88.05C337.797 87.4833 338.422 87.05 339.122 86.75C339.822 86.45 340.547 86.3 341.297 86.3C342.18 86.3 342.947 86.45 343.597 86.75C344.264 87.05 344.814 87.4667 345.247 88C345.697 88.5333 346.03 89.1667 346.247 89.9C346.464 90.6167 346.572 91.4 346.572 92.25C346.572 92.5833 346.555 92.9 346.522 93.2C346.489 93.5 346.455 93.725 346.422 93.875H338.997C339.164 94.775 339.53 95.4417 340.097 95.875C340.68 96.2917 341.389 96.5 342.222 96.5C343.105 96.5 343.997 96.225 344.897 95.675L346.122 97.9C345.489 98.3333 344.78 98.675 343.997 98.925C343.23 99.175 342.472 99.3 341.722 99.3ZM338.972 91.45H343.447C343.447 90.75 343.289 90.1833 342.972 89.75C342.655 89.3167 342.122 89.1 341.372 89.1C340.789 89.1 340.272 89.2917 339.822 89.675C339.389 90.0583 339.105 90.65 338.972 91.45ZM350.611 99V86.6H353.611L353.861 88.775H353.961C354.411 87.925 354.953 87.3 355.586 86.9C356.22 86.5 356.853 86.3 357.486 86.3C357.836 86.3 358.12 86.325 358.336 86.375C358.57 86.4083 358.778 86.4667 358.961 86.55L358.361 89.725C358.128 89.6583 357.911 89.6083 357.711 89.575C357.511 89.5417 357.278 89.525 357.011 89.525C356.545 89.525 356.053 89.6917 355.536 90.025C355.036 90.3583 354.62 90.95 354.286 91.8V99H350.611ZM367.378 99.3C366.495 99.3 365.67 99.1583 364.903 98.875C364.136 98.575 363.47 98.15 362.903 97.6C362.336 97.0333 361.895 96.35 361.578 95.55C361.261 94.75 361.103 93.8333 361.103 92.8C361.103 91.8 361.27 90.9 361.603 90.1C361.936 89.2833 362.37 88.6 362.903 88.05C363.453 87.4833 364.078 87.05 364.778 86.75C365.478 86.45 366.203 86.3 366.953 86.3C367.836 86.3 368.603 86.45 369.253 86.75C369.92 87.05 370.47 87.4667 370.903 88C371.353 88.5333 371.686 89.1667 371.903 89.9C372.12 90.6167 372.228 91.4 372.228 92.25C372.228 92.5833 372.211 92.9 372.178 93.2C372.145 93.5 372.111 93.725 372.078 93.875H364.653C364.82 94.775 365.186 95.4417 365.753 95.875C366.336 96.2917 367.045 96.5 367.878 96.5C368.761 96.5 369.653 96.225 370.553 95.675L371.778 97.9C371.145 98.3333 370.436 98.675 369.653 98.925C368.886 99.175 368.128 99.3 367.378 99.3ZM364.628 91.45H369.103C369.103 90.75 368.945 90.1833 368.628 89.75C368.311 89.3167 367.778 89.1 367.028 89.1C366.445 89.1 365.928 89.2917 365.478 89.675C365.045 90.0583 364.761 90.65 364.628 91.45Z" fill="#434BE7"/>
</svg>
